<svg width="44" height="44" viewBox="0 0 44 44" fill="none" xmlns="http://www.w3.org/2000/svg">
<path d="M22 25.0335L28.2834 31.3168C28.6806 31.7141 29.1862 31.9127 29.8 31.9127C30.4139 31.9127 30.9195 31.7141 31.3167 31.3168C31.7139 30.9196 31.9125 30.4141 31.9125 29.8002C31.9125 29.1863 31.7139 28.6807 31.3167 28.2835L25.0334 22.0002L31.3167 15.7168C31.7139 15.3196 31.9125 14.8141 31.9125 14.2002C31.9125 13.5863 31.7139 13.0807 31.3167 12.6835C30.9195 12.2863 30.4139 12.0877 29.8 12.0877C29.1862 12.0877 28.6806 12.2863 28.2834 12.6835L22 18.9668L15.7167 12.6835C15.3195 12.2863 14.8139 12.0877 14.2 12.0877C13.5862 12.0877 13.0806 12.2863 12.6834 12.6835C12.2862 13.0807 12.0875 13.5863 12.0875 14.2002C12.0875 14.8141 12.2862 15.3196 12.6834 15.7168L18.9667 22.0002L12.6834 28.2835C12.2862 28.6807 12.0875 29.1863 12.0875 29.8002C12.0875 30.4141 12.2862 30.9196 12.6834 31.3168C13.0806 31.7141 13.5862 31.9127 14.2 31.9127C14.8139 31.9127 15.3195 31.7141 15.7167 31.3168L22 25.0335ZM22 43.6668C19.0028 43.6668 16.1862 43.0981 13.55 41.9606C10.9139 40.8231 8.62087 39.2793 6.67087 37.3293C4.72087 35.3793 3.17712 33.0863 2.03962 30.4502C0.902124 27.8141 0.333374 24.9974 0.333374 22.0002C0.333374 19.0029 0.902124 16.1863 2.03962 13.5502C3.17712 10.9141 4.72087 8.621 6.67087 6.671C8.62087 4.721 10.9139 3.17725 13.55 2.03975C16.1862 0.902246 19.0028 0.333496 22 0.333496C24.9973 0.333496 27.8139 0.902246 30.45 2.03975C33.0862 3.17725 35.3792 4.721 37.3292 6.671C39.2792 8.621 40.823 10.9141 41.9605 13.5502C43.098 16.1863 43.6667 19.0029 43.6667 22.0002C43.6667 24.9974 43.098 27.8141 41.9605 30.4502C40.823 33.0863 39.2792 35.3793 37.3292 37.3293C35.3792 39.2793 33.0862 40.8231 30.45 41.9606C27.8139 43.0981 24.9973 43.6668 22 43.6668ZM22 39.3335C26.8389 39.3335 30.9375 37.6543 34.2959 34.296C37.6542 30.9377 39.3334 26.8391 39.3334 22.0002C39.3334 17.1613 37.6542 13.0627 34.2959 9.70433C30.9375 6.346 26.8389 4.66683 22 4.66683C17.1612 4.66683 13.0625 6.346 9.70421 9.70433C6.34587 13.0627 4.66671 17.1613 4.66671 22.0002C4.66671 26.8391 6.34587 30.9377 9.70421 34.296C13.0625 37.6543 17.1612 39.3335 22 39.3335Z" fill="white"/>
</svg>
